<svg id="SvgjsSvg1346" width="288" height="288" xmlns="http://www.w3.org/2000/svg" version="1.1" xmlns:xlink="http://www.w3.org/1999/xlink" xmlns:svgjs="http://svgjs.com/svgjs"><defs id="SvgjsDefs1347"></defs><g id="SvgjsG1348"><svg xmlns="http://www.w3.org/2000/svg" style="isolation:isolate" viewBox="0 0 512 512" width="288" height="288"><defs><clipPath id="a"><path d="M0 0h512v512H0z" fill="#2d767f" class="color000 svgShape"></path></clipPath></defs><g fill="#1e6262" clip-path="url(#a)" class="color2D2D2D svgShape"><path d="M431.79 184c0-2.92 1.16-5.72 3.22-7.78a11.005 11.005 0 0 1 15.56 0c2.06 2.06 3.22 4.86 3.22 7.78v301h-447V38h342c2.91 0 5.71 1.16 7.78 3.22a11.005 11.005 0 0 1 0 15.56 11.04 11.04 0 0 1-7.78 3.22h-320v403h403V184Z" fill="#2d767f" class="color000 svgShape"></path><path d="M201.68 214.88a11.012 11.012 0 0 1-8.15 2.12c-2.89-.41-5.5-1.94-7.26-4.27a11 11 0 0 1-2.12-8.15c.4-2.88 1.94-5.5 4.27-7.26a58.589 58.589 0 0 1 17.81-9.16 63.31 63.31 0 0 1 18.94-2.82c3.49.01 6.97.27 10.43.77 3.45.5 6.86 1.23 10.23 2.16 6.7 1.89 13.19 4.51 19.32 7.81 6.09 3.26 11.83 7.11 17.15 11.51 5.2 4.28 9.94 9.1 14.13 14.37a102.2 102.2 0 0 1 9.23 13.81c2.56 4.59 4.73 9.4 6.46 14.37a89.75 89.75 0 0 1 4.96 29.59c-.01 4.62-.33 9.24-.98 13.81-.65 4.61-1.58 9.18-2.8 13.68a130.56 130.56 0 0 1-4.4 13.46c-1.74 4.5-3.69 8.92-5.84 13.24a87.066 87.066 0 0 1-9.03 14.41c-3.54 4.59-7.44 8.88-11.68 12.83a128.56 128.56 0 0 1-13.84 11.23c-4.99 3.49-10.19 6.67-15.58 9.52a158.824 158.824 0 0 1-34.78 13.45c-6.07 1.58-12.23 2.78-18.45 3.61-6.19.82-12.43 1.24-18.68 1.25-5.43.01-10.86-.33-16.25-1.02-5.36-.68-10.67-1.75-15.87-3.2a100.02 100.02 0 0 1-15.18-5.58 90.543 90.543 0 0 1-14.12-8.16 86.658 86.658 0 0 1-12.63-10.87 88.555 88.555 0 0 1-10.7-13.64c-3.3-5.19-6.1-10.66-8.37-16.36-4.68-11.75-7.42-24.17-7.511-25.807-.336-6.062 2.765-9.563 6.921-7.813 0 0 7.97 2 16.11 2.76 2.09.2 4.19.26 6.28.18 1.67-.06 3.32-.23 4.96-.51 1.27-.21 2.53-.52 3.75-.93a21.66 21.66 0 0 0 3.87-1.73c1.1-.63 2.12-1.37 3.05-2.21.99-.89 1.87-1.87 2.65-2.95a26.78 26.78 0 0 0 2.52-4.29c.42-.91.77-1.85 1.04-2.81.31-1.11.55-2.24.73-3.38.21-1.36.38-2.72.49-4.1.14-1.6.26-3.21.37-4.82.19-3.2.46-6.39.82-9.57.45-3.82 1.16-7.6 2.12-11.33a74.92 74.92 0 0 1 4.57-12.65c2.24-4.75 4.91-9.28 7.98-13.54 1.7-2.37 4.28-3.97 7.16-4.44 2.88-.47 5.83.23 8.19 1.93 2.37 1.71 3.97 4.28 4.44 7.16.47 2.88-.23 5.83-1.93 8.2a63.297 63.297 0 0 0-5.92 10.04c-1.33 2.85-2.4 5.81-3.2 8.85-.71 2.72-1.22 5.5-1.55 8.29-.32 2.8-.56 5.61-.73 8.42-.11 1.79-.24 3.57-.4 5.35-.16 1.87-.38 3.74-.67 5.6-.32 2-.74 3.98-1.29 5.93-.59 2.1-1.35 4.16-2.27 6.14a48.462 48.462 0 0 1-4.63 7.9 41.23 41.23 0 0 1-5.76 6.41 39.121 39.121 0 0 1-6.83 4.95 42.344 42.344 0 0 1-7.9 3.53c-2.29.76-4.62 1.34-7 1.74q-2.58.44-7.022.985c-1.644.201-2.422 1.589-1.737 3.096q2.699 5.939 5.259 9.959c2.34 3.67 5.03 7.1 8.03 10.25 2.88 3 6.03 5.71 9.42 8.1 3.37 2.38 6.95 4.44 10.69 6.18a77.45 77.45 0 0 0 11.82 4.34c4.18 1.17 8.45 2.03 12.76 2.58 4.46.56 8.95.85 13.44.84 5.29-.01 10.57-.36 15.81-1.06 5.34-.71 10.64-1.75 15.86-3.1 10.41-2.68 20.48-6.57 29.99-11.6 4.58-2.42 9-5.12 13.23-8.09 4.03-2.82 7.86-5.93 11.46-9.29a83.73 83.73 0 0 0 9.27-10.19c2.6-3.36 4.86-6.97 6.76-10.77 1.84-3.71 3.52-7.51 5.01-11.38 1.43-3.68 2.66-7.43 3.68-11.24.98-3.63 1.73-7.31 2.26-11.03.5-3.57.75-7.17.76-10.78.02-7.59-1.25-15.14-3.73-22.32a70 70 0 0 0-4.9-10.89 81.24 81.24 0 0 0-7.25-10.84 72.675 72.675 0 0 0-10.9-11.07c-4.2-3.48-8.74-6.53-13.55-9.1-4.72-2.55-9.7-4.56-14.86-6.01-2.45-.69-4.95-1.21-7.47-1.58-2.42-.35-4.87-.53-7.32-.54-4.18-.02-8.34.6-12.34 1.83a36.346 36.346 0 0 0-11.08 5.71zm110.25-37.99a11.005 11.005 0 0 1-15.56 0 11 11 0 0 1 0-15.55L449.906 7.804c3.512-3.512 9.215-3.512 12.727.001l41.804 41.81c3.512 3.513 3.511 9.217-.001 12.729L350.67 216.1a11 11 0 0 1-15.55 0 10.973 10.973 0 0 1-3.23-7.78c0-2.91 1.16-5.71 3.23-7.78L473.316 62.344c3.512-3.512 3.513-9.216.001-12.729l-10.684-10.69c-3.512-3.513-9.215-3.514-12.727-.001L311.93 176.89z" fill="#2d767f" class="color000 svgShape"></path></g></svg></g></svg>