<svg xmlns="http://www.w3.org/2000/svg" enable-background="new 0 0 32 32" viewBox="0 0 32 32" id="elementor"><path fill="#E3F8FA" d="M26,32H6c-3.314,0-6-2.686-6-6V6c0-3.314,2.686-6,6-6h20c3.314,0,6,2.686,6,6v20C32,29.314,29.314,32,26,32z"></path><path fill="#26C6DA" d="M24,23.2V8.8C24,8.357,23.643,8,23.2,8H8.8C8.357,8,8,8.357,8,8.8v14.4C8,23.643,8.357,24,8.8,24H23.2C23.643,24,24,23.643,24,23.2z M13.868,19.554h-1.422v-7.107h1.422V19.554z M19.557,19.554h-4.268v-1.422h4.268V19.554z M19.557,16.711h-4.268v-1.422h4.268V16.711z M19.557,13.864h-4.268v-1.422h4.268V13.864z"></path><polygon fill="#8CE1EB" points="8.056 20.829 8.055 20.827 8.053 20.818"></polygon></svg>