<svg xmlns="http://www.w3.org/2000/svg" enable-background="new 0 0 512 512" viewBox="0 0 512 512" id="ranking"><linearGradient id="a" x1="70.293" x2="441.687" y1="-21.293" y2="350.101" gradientTransform="matrix(1 0 0 -1 0 512)" gradientUnits="userSpaceOnUse"><stop offset="0" stop-color="#be53ff"></stop><stop offset="1" stop-color="#4958ff"></stop></linearGradient><path fill="url(#a)" d="M172.641,512H51.2c-2.933,0-5.333-2.4-5.333-5.333v-127.04c0-14.72,11.947-26.667,26.667-26.667h99.147C172.01,515.388,170.83,507.326,172.641,512z M302.933,210.614h-93.92c-14.72,0-26.667,11.947-26.667,26.667v269.386c0,2.933,2.4,5.333,5.333,5.333h136.586c2.933,0,5.333-2.4,5.333-5.333V237.28C329.6,222.56,317.653,210.614,302.933,210.614z M439.467,294.133h-99.2c-0.331,223.949,0.846,213.202-0.96,217.867h121.493c2.933,0,5.333-2.4,5.333-5.333V320.8C466.133,306.08,454.133,294.133,439.467,294.133z M329.867,73.014c4.373-4.267,5.973-10.559,4.053-16.373c-1.92-5.867-6.827-10.027-12.907-10.933l-32.267-4.64c-1.706-0.267-3.2-1.386-4-2.933L270.347,8.906C267.627,3.414,262.133,0,256,0c-6.133,0-11.627,3.414-14.347,8.906L227.2,38.133c-0.747,1.547-2.24,2.667-4,2.933l-32.267,4.64c-6.027,0.906-10.986,5.067-12.907,10.933c-1.867,5.814-0.32,12.107,4.053,16.373l23.36,22.774c1.227,1.226,1.814,2.986,1.494,4.693l-5.494,32.107c-1.014,6.08,1.386,12.053,6.347,15.68c5.014,3.573,11.467,4.053,16.853,1.174l28.853-15.147c1.547-0.8,3.414-0.8,4.96,0l28.853,15.147c4.929,2.689,11.551,2.628,16.853-1.174c4.96-3.627,7.414-9.6,6.347-15.68l-5.494-32.107c-0.32-1.706,0.267-3.467,1.547-4.693L329.867,73.014z"></path></svg>