<svg xmlns="http://www.w3.org/2000/svg" fill-rule="evenodd" stroke-linejoin="round" stroke-miterlimit="1.414" clip-rule="evenodd" viewBox="0 0 389 336" id="ssl-certificate"><path fill="none" d="M.595.855h387.634V335.02H.595z"></path><path fill="#cce6ff" fill-opacity=".259" d="M374.64 50.014c0-8.883-7.212-16.095-16.095-16.095H48.936c-8.883 0-16.095 7.212-16.095 16.095v193.869c0 8.883 7.212 16.095 16.095 16.095h309.609c8.883 0 16.095-7.212 16.095-16.095V50.014Z"></path><path fill="url(#a)" d="M364.409 37.282c0-8.883-7.212-16.095-16.095-16.095H38.704c-8.883 0-16.095 7.212-16.095 16.095v193.869c0 8.883 7.212 16.095 16.095 16.095h309.61c8.883 0 16.095-7.212 16.095-16.095V37.282Z"></path><path fill="url(#b)" d="M346.522 48.299c0-6.514-5.288-11.803-11.802-11.803H49.964c-4.738 0-8.584 3.847-8.584 8.584v161.355h305.142V48.299Z"></path><path fill="#e5f1ff" d="M219.55 225.797a6.441 6.441 0 0 0-6.438-6.438h-37.59a6.44 6.44 0 0 0-6.438 6.438v1.894a6.44 6.44 0 0 0 6.438 6.438h37.59a6.44 6.44 0 0 0 6.438-6.438v-1.894Z"></path><path fill="url(#c)" d="m272.587 148.234-.184.004c-14.234 0-25.79-11.556-25.79-25.789v-21.31c0-14.234 11.556-25.79 25.79-25.79s25.79 11.556 25.79 25.79v21.31c0 14.047-11.255 25.486-25.238 25.776 7.597-.136 13.721-6.35 13.721-13.984V101.94c0-7.726-6.272-13.998-13.997-13.998-7.726 0-13.998 6.272-13.998 13.998v32.301c0 7.696 6.225 13.95 13.906 13.993Z"></path><path fill="url(#d)" d="M305.891 120.598c0-5.922-4.807-10.73-10.73-10.73h-46.047c-5.922 0-10.73 4.808-10.73 10.73v33.905c0 5.922 4.808 10.73 10.73 10.73h46.047c5.923 0 10.73-4.808 10.73-10.73v-33.905Z"></path><path fill="#fff" d="M267.907 139.477c-2.852-1.262-4.836-4.063-4.836-7.313 0-4.433 3.692-8.031 8.24-8.031 4.547 0 8.239 3.598 8.239 8.031 0 3.441-2.224 6.379-5.344 7.52v5.405a3.15 3.15 0 0 1-6.299 0v-5.612Z"></path><path fill="#0085ff" fill-rule="nonzero" d="M120.978 136.061c0-19.295-29.68-13.793-29.68-22.007 0-3.1 2.635-5.192 7.362-5.192 3.797 0 7.827.93 11.391 2.944.93.543 1.86.775 2.79.775 2.635 0 5.502-2.014 5.502-4.959 0-.93-.31-1.86-.93-2.635-2.867-3.797-11.856-5.734-17.745-5.734-12.167 0-19.606 7.129-19.606 15.731 0 19.45 29.757 13.173 29.757 22.317 0 2.945-2.945 5.735-8.989 5.735a22.712 22.712 0 0 1-12.941-4.03c-.853-.62-1.937-.852-2.945-.852-2.635 0-5.192 2.169-5.192 5.114 0 .93.31 1.86.853 2.635 2.867 4.262 12.166 6.742 19.682 6.742 13.949 0 20.691-7.13 20.691-16.584zm46.495 0c0-19.295-29.68-13.793-29.68-22.007 0-3.1 2.635-5.192 7.362-5.192 3.797 0 7.827.93 11.391 2.944.93.543 1.86.775 2.79.775 2.635 0 5.502-2.014 5.502-4.959 0-.93-.31-1.86-.93-2.635-2.867-3.797-11.856-5.734-17.745-5.734-12.167 0-19.606 7.129-19.606 15.731 0 19.45 29.757 13.173 29.757 22.317 0 2.945-2.945 5.735-8.989 5.735a22.712 22.712 0 0 1-12.941-4.03c-.853-.62-1.937-.852-2.945-.852-2.635 0-5.192 2.169-5.192 5.114 0 .93.31 1.86.853 2.635 2.867 4.262 12.166 6.742 19.683 6.742 13.948 0 20.69-7.13 20.69-16.584zm40.76 10.694c0-2.557-2.169-4.727-4.727-4.727h-17.59v-37.041c0-2.944-2.48-5.424-5.425-5.424-3.099 0-5.579 2.48-5.579 5.424v40.528c0 3.41 2.79 6.2 6.199 6.2h22.395c2.558 0 4.727-2.17 4.727-4.96z"></path><path fill="url(#e)" d="M156.775 246.438h72.622v39.586s-.13 12.1 19.694 21.03c-9.126 2.073-68.93 0-68.93 0v-.303c-.714.043-34.051 2.041-43.08 0 19.824-8.885 19.694-20.925 19.694-20.925v-39.388Z"></path><path fill="#cce6ff" d="M250.322 311.106a8.05 8.05 0 0 0-8.048-8.047h-98.377a8.05 8.05 0 0 0-8.047 8.047v2.368a8.051 8.051 0 0 0 8.047 8.048h98.377a8.052 8.052 0 0 0 8.048-8.048v-2.368Z"></path><defs><linearGradient id="a" x2="1" gradientTransform="rotate(90 103.728 253.317) scale(171.851)" gradientUnits="userSpaceOnUse"><stop offset="0" stop-color="#cce6ff"></stop><stop offset="1" stop-color="#1d98ff"></stop></linearGradient><linearGradient id="b" x2="1" gradientTransform="rotate(90 23.61 158.936) scale(239.911)" gradientUnits="userSpaceOnUse"><stop offset="0" stop-color="#fff"></stop><stop offset="1" stop-color="#d0e4fc"></stop></linearGradient><linearGradient id="c" x2="1" gradientTransform="rotate(-100.018 181.608 -63.641) scale(39.65957)" gradientUnits="userSpaceOnUse"><stop offset="0" stop-color="#0bbc00"></stop><stop offset="1" stop-color="#79df68"></stop></linearGradient><linearGradient id="d" x2="1" gradientTransform="rotate(-102.932 209.913 -37.912) scale(63.8971)" gradientUnits="userSpaceOnUse"><stop offset="0" stop-color="#0bbc00"></stop><stop offset="1" stop-color="#79df68"></stop></linearGradient><linearGradient id="e" x2="1" gradientTransform="rotate(-90 271.925 59.287) scale(92.9029)" gradientUnits="userSpaceOnUse"><stop offset="0" stop-color="#cce6ff"></stop><stop offset="1" stop-color="#1d98ff"></stop></linearGradient></defs></svg>