<svg id="SvgjsSvg1374" width="288" height="288" xmlns="http://www.w3.org/2000/svg" version="1.1" xmlns:xlink="http://www.w3.org/1999/xlink" xmlns:svgjs="http://svgjs.com/svgjs"><defs id="SvgjsDefs1375"></defs><g id="SvgjsG1376"><svg xmlns="http://www.w3.org/2000/svg" viewBox="0 0 52 52" width="288" height="288"><path fill="none" stroke="#fc5c9c" stroke-linecap="round" stroke-linejoin="round" stroke-miterlimit="10" stroke-width="2" d="M31.778 44.397 26.175 50V37.223c-4.215 1.207-7.873.862-10.067-1.331-2.193-2.194-2.538-5.852-1.331-10.067H2l5.603-5.603c2.95-2.95 7.136-2.921 10.067-.948 1.724-2.97 4.051-5.986 6.876-8.812 9.348-9.348 25.43-8.438 25.43-8.438s.91 16.082-8.438 25.43c-2.826 2.825-5.843 5.152-8.812 6.876 1.973 2.931 2.002 7.117-.948 10.067z" class="colorStroke000 svgStroke"></path><circle cx="37.003" cy="14.997" r="4.064" fill="none" stroke="#fc5c9c" stroke-linecap="round" stroke-linejoin="round" stroke-miterlimit="10" stroke-width="2" class="colorStroke000 svgStroke"></circle><path fill="none" stroke="#fc5c9c" stroke-linecap="round" stroke-linejoin="round" stroke-miterlimit="10" stroke-width="2" d="M31.778 44.397 26.175 50V37.223c-4.215 1.207-7.873.862-10.067-1.331-2.193-2.194-2.538-5.852-1.331-10.067H2l5.603-5.603c2.95-2.95 7.136-2.921 10.067-.948 1.724-2.97 4.051-5.986 6.876-8.812 9.348-9.348 25.43-8.438 25.43-8.438s.91 16.082-8.438 25.43c-2.826 2.825-5.843 5.152-8.812 6.876 1.973 2.931 2.002 7.117-.948 10.067z" class="colorStroke000 svgStroke"></path><circle cx="37.003" cy="14.997" r="4.064" fill="none" stroke="#fc5c9c" stroke-linecap="round" stroke-linejoin="round" stroke-miterlimit="10" stroke-width="2" class="colorStroke000 svgStroke"></circle></svg></g></svg>