<svg xmlns="http://www.w3.org/2000/svg" xmlns:xlink="http://www.w3.org/1999/xlink" fill-rule="evenodd" stroke-linejoin="round" stroke-miterlimit="1.414" clip-rule="evenodd" viewBox="0 0 508 430" id="vps"><path fill="none" d="M.233.123h506.992v429.036H.233z"></path><clipPath id="a"><path d="M.233.123h506.992v429.036H.233z"></path></clipPath><g clip-path="url(#a)"><path fill="url(#b)" d="M-17.127 350.41h534.68v26.242h-534.68z"></path><path fill="url(#c)" d="M511.301 358.86a5.754 5.754 0 0 0-5.751-5.751H-2.799a5.754 5.754 0 0 0-5.751 5.751v.013a5.754 5.754 0 0 0 5.751 5.751H505.55a5.754 5.754 0 0 0 5.751-5.751v-.013Z"></path><path fill="url(#d)" d="M270.203 351.742c0-5.431-4.41-9.84-9.841-9.84h-25.285c-5.432 0-9.841 4.409-9.841 9.84v25.217c0 5.432 4.409 9.841 9.841 9.841h25.285c5.431 0 9.841-4.409 9.841-9.841v-25.217Z"></path><path fill="url(#e)" d="M376.196 351.742c0-5.431-4.41-9.84-9.841-9.84H341.07c-5.432 0-9.841 4.409-9.841 9.84v25.217c0 5.432 4.409 9.841 9.841 9.841h25.285c5.431 0 9.841-4.409 9.841-9.841v-25.217Z"></path><path fill="url(#f)" d="M162.843 351.742c0-5.431-4.41-9.84-9.841-9.84h-25.285c-5.431 0-9.841 4.409-9.841 9.84v25.217c0 5.432 4.41 9.841 9.841 9.841h25.285c5.431 0 9.841-4.409 9.841-9.841v-25.217Z"></path><path fill="url(#g)" d="M381.86 223.053c0-4.798-3.895-8.693-8.693-8.693H125.546c-4.798 0-8.693 3.895-8.693 8.693v71.692c0 4.798 3.895 8.693 8.693 8.693h247.621c4.798 0 8.693-3.895 8.693-8.693v-71.692Z"></path><path fill="url(#h)" d="M366.674 303.438v-73.295H124.65a6.088 6.088 0 0 1-6.086-6.085v-3.613a6.088 6.088 0 0 1 6.086-6.085h248.517c4.423 0 8.079 3.31 8.623 7.586l.013.109.012.11.011.109.009.11.007.111.007.111.005.111.003.112.002.112.001.112v71.692c0 4.798-3.895 8.693-8.693 8.693h-6.493Z"></path><circle cx="151.245" cy="262.281" r="7.335" fill="#53ba2f"></circle><clipPath id="b"><ellipse cx="152.169" cy="259.931" rx="1.766" ry="1.752"></ellipse></clipPath><g clip-path="url(#b)"><use width="3.532" height="3.504" x="170.35" y="294.687" transform="scale(.8829 .87611)" xlink:href="#_Image10"></use></g><path fill="#fff" d="M343.501 260.678a3.479 3.479 0 0 0-3.477-3.477H183.465a3.479 3.479 0 0 0-3.478 3.477v2.065a3.479 3.479 0 0 0 3.478 3.477h156.559a3.479 3.479 0 0 0 3.477-3.477v-2.065Z"></path><path fill="url(#j)" d="M125.546 214.36h7.09v74.408h241.998a6.088 6.088 0 0 1 6.085 6.085v3.641c0 .205-.01.408-.03.608a8.692 8.692 0 0 1-7.522 4.336H125.546c-4.798 0-8.693-3.895-8.693-8.693v-71.692c0-4.798 3.895-8.693 8.693-8.693Z"></path><path fill="url(#k)" d="M381.86 133.611c0-4.798-3.895-8.693-8.693-8.693H125.546c-4.798 0-8.693 3.895-8.693 8.693v71.692c0 4.798 3.895 8.693 8.693 8.693h247.621c4.798 0 8.693-3.895 8.693-8.693v-71.692Z"></path><path fill="url(#l)" d="M366.674 213.996v-73.295H124.65a6.089 6.089 0 0 1-6.086-6.085v-3.613a6.088 6.088 0 0 1 6.086-6.085h248.517c4.423 0 8.079 3.31 8.623 7.586l.013.109.012.109.011.11.009.11.007.111.007.111.005.111.003.112.002.111.001.113v71.692c0 4.798-3.895 8.693-8.693 8.693h-6.493Z"></path><circle cx="151.245" cy="172.839" r="7.335" fill="#53ba2f"></circle><clipPath id="c"><ellipse cx="152.169" cy="170.489" rx="1.766" ry="1.752"></ellipse></clipPath><g clip-path="url(#c)"><use width="3.532" height="3.504" x="170.35" y="192.597" transform="scale(.8829 .87611)" xlink:href="#_Image10"></use></g><path fill="#fff" d="M343.501 171.236a3.479 3.479 0 0 0-3.477-3.477H183.465a3.479 3.479 0 0 0-3.478 3.477v2.065a3.479 3.479 0 0 0 3.478 3.477h156.559a3.479 3.479 0 0 0 3.477-3.477v-2.065Z"></path><path fill="url(#n)" d="M125.546 124.918h7.09v74.408h241.998a6.088 6.088 0 0 1 6.085 6.085v3.641c0 .205-.01.408-.03.608a8.692 8.692 0 0 1-7.522 4.336H125.546c-4.798 0-8.693-3.895-8.693-8.693v-71.692c0-4.798 3.895-8.693 8.693-8.693Z"></path><path fill="url(#o)" d="M381.86 45.128c0-4.798-3.895-8.693-8.693-8.693H125.546c-4.798 0-8.693 3.895-8.693 8.693v71.692c0 4.798 3.895 8.693 8.693 8.693h247.621c4.798 0 8.693-3.895 8.693-8.693V45.128Z"></path><path fill="url(#p)" d="M366.674 125.513V52.218H124.65a6.088 6.088 0 0 1-6.086-6.085V42.52a6.089 6.089 0 0 1 6.086-6.085h248.517c4.423 0 8.079 3.31 8.623 7.586l.013.109.012.11.011.109.009.111.007.11.007.111.005.111.003.112.002.112.001.112v71.692c0 4.798-3.895 8.693-8.693 8.693h-6.493Z"></path><circle cx="151.245" cy="84.356" r="7.335" fill="#53ba2f"></circle><clipPath id="d"><ellipse cx="152.169" cy="82.006" rx="1.766" ry="1.752"></ellipse></clipPath><g clip-path="url(#d)"><use width="3.532" height="3.504" x="170.35" y="91.602" transform="scale(.8829 .87611)" xlink:href="#_Image10"></use></g><path fill="#fff" d="M343.501 82.753a3.479 3.479 0 0 0-3.477-3.477H183.465a3.479 3.479 0 0 0-3.478 3.477v2.065a3.479 3.479 0 0 0 3.478 3.477h156.559a3.479 3.479 0 0 0 3.477-3.477v-2.065Z"></path><path fill="url(#r)" d="M125.546 36.435h7.09v74.408h241.998a6.089 6.089 0 0 1 6.085 6.086v3.64c0 .205-.01.408-.03.608a8.692 8.692 0 0 1-7.522 4.336H125.546c-4.798 0-8.693-3.895-8.693-8.693V45.128c0-4.798 3.895-8.693 8.693-8.693Z"></path></g><defs><linearGradient id="b" x2="1" gradientTransform="translate(-6.195 367.377) scale(515.877)" gradientUnits="userSpaceOnUse"><stop offset="0" stop-color="#fff" stop-opacity="0"></stop><stop offset=".15" stop-color="#7ad5ff"></stop><stop offset=".87" stop-color="#7ad5ff"></stop><stop offset="1" stop-color="#fff" stop-opacity="0"></stop></linearGradient><linearGradient id="c" x2="1" gradientTransform="matrix(519.851 0 0 11.515 -8.55 358.867)" gradientUnits="userSpaceOnUse"><stop offset="0" stop-color="#fff" stop-opacity="0"></stop><stop offset=".11" stop-color="#fff" stop-opacity=".651"></stop><stop offset=".91" stop-color="#fff" stop-opacity=".651"></stop><stop offset="1" stop-color="#fff" stop-opacity="0"></stop></linearGradient><linearGradient id="d" x2="1" gradientTransform="rotate(90.515 -34.346 283.391) scale(79.85193)" gradientUnits="userSpaceOnUse"><stop offset="0" stop-color="#7ad6ff"></stop><stop offset="1" stop-color="#2684fb"></stop></linearGradient><linearGradient id="e" x2="1" gradientTransform="rotate(90 16.73 332.299) scale(85.0442)" gradientUnits="userSpaceOnUse"><stop offset="0" stop-color="#7ad6ff"></stop><stop offset="1" stop-color="#2684fb"></stop></linearGradient><linearGradient id="f" x2="1" gradientTransform="rotate(90 -75.763 216.351) scale(92.532)" gradientUnits="userSpaceOnUse"><stop offset="0" stop-color="#7ad6ff"></stop><stop offset=".25" stop-color="#7ad6ff"></stop><stop offset=".5" stop-color="#7ad6ff"></stop><stop offset="1" stop-color="#2684fb"></stop></linearGradient><linearGradient id="g" x2="1" gradientTransform="rotate(97.071 24.963 256.8) scale(105.4127)" gradientUnits="userSpaceOnUse"><stop offset="0" stop-color="#cce6ff"></stop><stop offset=".47" stop-color="#9cd1ff"></stop><stop offset="1" stop-color="#1d98ff"></stop></linearGradient><linearGradient id="h" x2="1" gradientTransform="rotate(-73.234 305.184 -37.284) scale(135.5771)" gradientUnits="userSpaceOnUse"><stop offset="0" stop-color="#cce6ff" stop-opacity=".62"></stop><stop offset=".18" stop-color="#e2f1ff" stop-opacity=".62"></stop><stop offset=".39" stop-color="#f6fbff" stop-opacity=".62"></stop><stop offset="1" stop-color="#fff" stop-opacity=".62"></stop></linearGradient><linearGradient id="k" x2="1" gradientTransform="rotate(97.071 64.456 212.091) scale(105.4127)" gradientUnits="userSpaceOnUse"><stop offset="0" stop-color="#cce6ff"></stop><stop offset=".47" stop-color="#9cd1ff"></stop><stop offset="1" stop-color="#1d98ff"></stop></linearGradient><linearGradient id="l" x2="1" gradientTransform="rotate(-73.234 244.988 -82.024) scale(135.5771)" gradientUnits="userSpaceOnUse"><stop offset="0" stop-color="#cce6ff" stop-opacity=".62"></stop><stop offset=".18" stop-color="#e2f1ff" stop-opacity=".62"></stop><stop offset=".39" stop-color="#f6fbff" stop-opacity=".62"></stop><stop offset="1" stop-color="#fff" stop-opacity=".62"></stop></linearGradient><linearGradient id="o" x2="1" gradientTransform="rotate(97.071 103.577 167.847) scale(105.4127)" gradientUnits="userSpaceOnUse"><stop offset="0" stop-color="#cce6ff"></stop><stop offset=".47" stop-color="#9cd1ff"></stop><stop offset="1" stop-color="#1d98ff"></stop></linearGradient><linearGradient id="p" x2="1" gradientTransform="rotate(-73.234 185.47 -126.222) scale(135.5771)" gradientUnits="userSpaceOnUse"><stop offset="0" stop-color="#cce6ff" stop-opacity=".62"></stop><stop offset=".18" stop-color="#e2f1ff" stop-opacity=".62"></stop><stop offset=".39" stop-color="#f6fbff" stop-opacity=".62"></stop><stop offset="1" stop-color="#fff" stop-opacity=".62"></stop></linearGradient><radialGradient id="j" cx="0" cy="0" r="1" gradientTransform="translate(199.628 401.472) scale(229.685)" gradientUnits="userSpaceOnUse"><stop offset="0" stop-color="#2884fb" stop-opacity=".639"></stop><stop offset=".52" stop-color="#4f9afb" stop-opacity=".489"></stop><stop offset="1" stop-color="#d0e4fc" stop-opacity="0"></stop></radialGradient><radialGradient id="n" cx="0" cy="0" r="1" gradientTransform="translate(199.628 312.03) scale(229.685)" gradientUnits="userSpaceOnUse"><stop offset="0" stop-color="#2884fb" stop-opacity=".639"></stop><stop offset=".52" stop-color="#4f9afb" stop-opacity=".489"></stop><stop offset="1" stop-color="#d0e4fc" stop-opacity="0"></stop></radialGradient><radialGradient id="r" cx="0" cy="0" r="1" gradientTransform="translate(199.628 223.547) scale(229.685)" gradientUnits="userSpaceOnUse"><stop offset="0" stop-color="#2884fb" stop-opacity=".639"></stop><stop offset=".52" stop-color="#4f9afb" stop-opacity=".489"></stop><stop offset="1" stop-color="#d0e4fc" stop-opacity="0"></stop></radialGradient></defs></svg>