<svg xmlns="http://www.w3.org/2000/svg" fill-rule="evenodd" stroke-linejoin="round" stroke-miterlimit="1.414" clip-rule="evenodd" viewBox="0 0 366 328" id="wp-cli"><path fill="none" d="M.012.97h365.175v326.861H.012z"></path><path fill="#cce6ff" fill-opacity=".259" d="M349.233 53.619c0-8.278-6.722-15-15-15H45.685c-8.278 0-15 6.722-15 15v180.68c0 8.279 6.722 15 15 15h288.548c8.278 0 15-6.721 15-15V53.619Z"></path><path fill="url(#a)" d="M339.697 41.754c0-8.279-6.721-15-15-15H36.15c-8.279 0-15 6.721-15 15v180.68c0 8.278 6.721 15 15 15h288.547c8.279 0 15-6.722 15-15V41.754Z"></path><path fill="url(#b)" d="M323.027 52.021c0-6.071-4.928-11-11-11H46.644c-4.416 0-8 3.585-8 8v150.378h284.383V52.021Z"></path><clipPath id="a"><path d="M323.027 52.021c0-6.071-4.928-11-11-11H46.644c-4.416 0-8 3.585-8 8v150.378h284.383V52.021Z"></path></clipPath><g fill="#0bbc00" clip-path="url(#a)"><path d="M54.661 53.497h179v14h-179zM54.661 149.497h70v14h-70zM54.661 171.497h70v14h-70zM54.661 126.497h90v14h-90zM54.661 78.497h90v14h-90zM54.661 103.497h148v14h-148z"></path></g><path fill="#e5f1ff" d="M204.693 217.444c0-3.312-2.689-6-6-6H163.66c-3.312 0-6 2.688-6 6v1.765c0 3.312 2.688 6 6 6h35.033c3.311 0 6-2.688 6-6v-1.765Z"></path><path fill="url(#d)" d="M146.188 236.681h67.682v36.893s-.121 11.277 18.354 19.599c-8.505 1.932-64.24 0-64.24 0v-.282c-.666.04-31.735 1.902-40.15 0 18.475-8.281 18.354-19.502 18.354-19.502v-36.708Z"></path><path fill="#cce6ff" d="M233.371 296.949c0-4.139-3.361-7.5-7.5-7.5h-91.684c-4.14 0-7.5 3.361-7.5 7.5v2.208c0 4.139 3.36 7.5 7.5 7.5h91.684c4.139 0 7.5-3.361 7.5-7.5v-2.208Z"></path><path fill="#0084ff" fill-rule="nonzero" d="M285.661 176.688c-30.268 0-54.809 24.54-54.809 54.809 0 30.268 24.541 54.808 54.809 54.808 30.268 0 54.809-24.54 54.809-54.808 0-30.269-24.541-54.809-54.809-54.809Zm-46.977 54.809a44.626 44.626 0 0 1 4.067-18.62l22.41 59.793c-15.672-7.413-26.477-23.069-26.477-41.173Zm46.977 45.763c-4.61 0-9.056-.663-13.271-1.867l14.094-39.895 14.432 38.53.334.636a47.935 47.935 0 0 1-15.589 2.596Zm6.463-67.214a98.907 98.907 0 0 0 5.379-.431c2.53-.294 2.235-3.914-.294-3.777 0 0-7.614.582-12.521.582-4.61 0-12.374-.582-12.374-.582-2.533-.143-2.827 3.627-.302 3.777 0 0 2.399.288 4.928.431l7.316 19.534-10.284 30.03-17.1-49.564a97.627 97.627 0 0 0 5.379-.431c2.529-.294 2.235-3.914-.295-3.777 0 0-7.61.582-12.517.582l-3.021-.053c8.393-12.421 22.835-20.63 39.243-20.63 12.231 0 23.364 4.556 31.727 12.012l-.609-.043c-4.616 0-7.889 3.914-7.889 8.119 0 3.777 2.228 6.961 4.604 10.735 1.799 3.057 3.88 6.968 3.88 12.622 0 3.91-1.539 8.457-3.573 14.799l-4.689 15.241-16.988-49.176Zm40.518 21.451c0 16.88-9.394 31.619-23.363 39.541l14.351-40.405c2.683-6.529 3.566-11.741 3.566-16.388 0-1.686-.107-3.248-.308-4.707 3.66 6.524 5.754 14.004 5.754 21.959Z"></path><path fill="#fff" fill-rule="nonzero" d="M312.739 173.417s7.202 3.946 7.459 4.109c15.813 10.194 26.957 27.76 29.115 46.625 2.488 21.764-7.07 44.529-24.395 57.981-19.669 15.272-48.434 17.639-70.478 5.322-17.178-9.598-29.495-27.5-32.227-47.008-3.922-28.013 12.737-57.843 39.957-68.571 16.108-6.349 34.709-5.798 50.569 1.542Zm-27.432 3.272c-19.924.189-39.176 12.001-48.306 29.562-7.806 15.013-8.106 33.729-.744 49.007 11.842 24.574 43.641 38.007 70.429 26.869 17.496-7.274 30.625-24.191 33.252-42.966 2.42-17.289-3.974-35.574-16.701-47.564-9.954-9.377-23.408-14.777-37.221-14.908a83.78 83.78 0 0 0-.709 0Zm15.609 97.339s1.038.408-.353.866c-9.016 2.919-18.806 3.113-27.975.555l-.198-.056 14.094-39.895 14.432 38.53Zm-35.755-1.358c-21.159-10.064-32.712-37.103-22.41-59.793l22.41 59.793Zm61.898-62.825c6.484 11.877 7.311 26.582 2.095 38.976-3.925 9.327-11.173 17.236-19.875 22.217l14.351-40.405c2.739-6.715 4.21-13.938 3.258-21.095l.171.307Zm-42.233 58.146a40.263 40.263 0 0 0 3.899-.111l-1.986-5.303-1.913 5.414Zm1.122-82.253c11.392.099 22.682 4.332 31.243 11.837l.197.174s-2.664-.134-4.651 1.093c-2.851 1.761-4.287 5.371-3.691 8.714.561 3.153 2.478 5.892 4.225 8.652 0 0 4.467 7.176 4.075 13.902-.274 4.72-2.059 9.247-3.545 13.871l-4.689 15.241-16.988-49.176c.348-.018.695-.038 1.042-.059 1.022-.068 2.042-.147 3.061-.243 1.035-.097 2.171-.155 2.705-.934 1.014-1.478-.386-3.057-3.639-2.837-7.484.489-14.974.441-22.637-.11-2.175-.156-3.531 3.411-.76 3.743 1.679.16 3.359.341 5.044.44l7.316 19.534-10.284 30.03-17.1-49.564c.68-.035 1.359-.079 2.037-.128 1.795-.137 3.969.061 4.771-1.108 1.013-1.478-.387-3.057-3.639-2.837-3.453.226-6.91.428-10.37.447l-3.253-.053c.198-.291.198-.29.398-.579 8.582-12.19 23.11-19.753 38.077-20.045.352-.004.703-.007 1.055-.005Zm-12.008 45.385.48-1.403-4.115-10.988-.686-.132 4.321 12.523Zm34.094-3.38c-.202-1.845-.918-3.601-1.81-5.242l-.001-.001 1.811 5.243Zm-22.532-32.746c-3.764.02-7.52.581-11.134 1.665l-.101.031c7.44.501 14.912.456 22.383-.098 0 0-5.555-1.608-11.148-1.598Z"></path><defs><linearGradient id="a" x2="1" gradientTransform="rotate(89.209 -38.471 82.34) scale(303.61294)" gradientUnits="userSpaceOnUse"><stop offset="0" stop-color="#cce6ff"></stop><stop offset="1" stop-color="#1d98ff"></stop></linearGradient><linearGradient id="b" x2="1" gradientTransform="rotate(90.356 117.029 171.923) scale(303.4999)" gradientUnits="userSpaceOnUse"><stop offset="0" stop-color="#fff"></stop><stop offset="1" stop-color="#d0e4fc"></stop></linearGradient><linearGradient id="d" x2="1" gradientTransform="rotate(-90.848 253.503 63.852) scale(100.63803)" gradientUnits="userSpaceOnUse"><stop offset="0" stop-color="#cce6ff"></stop><stop offset="1" stop-color="#1d98ff"></stop></linearGradient></defs></svg>